<svg id="Capa_1" data-name="Capa 1" xmlns="http://www.w3.org/2000/svg" viewBox="0 0 31.53 17.01"><defs><style>.cls-1{fill:#504f51;}.cls-2{fill:#1f140f;}.cls-3{fill:#fff;}.cls-4{fill:#b5b5ba;}.cls-5{fill:#ab8656;}.cls-6{fill:#fccf00;}</style></defs><polygon class="cls-1" points="15.82 7.73 9.44 2.92 3.13 7.73 1.7 7.73 1.7 14.32 29.77 14.32 29.77 7.73 15.82 7.73"/><path class="cls-2" d="M5,23.5H4.84v-.94H5Z" transform="translate(-0.24 -7.49)"/><path class="cls-2" d="M5.8,22.56h.12v.94H5.78l-.47-.76h0v.76H5.18v-.94h.15l.47.76h0Z" transform="translate(-0.24 -7.49)"/><path class="cls-2" d="M6.72,22.56h.14l-.34.94H6.39l-.34-.94h.14l.27.8h0Z" transform="translate(-0.24 -7.49)"/><path class="cls-2" d="M7.69,23.5H7v-.94h.68v.11H7.13V23h.51v.11H7.13v.31h.56Z" transform="translate(-0.24 -7.49)"/><path class="cls-2" d="M8,23.5H7.87v-.94H8.3c.16,0,.31.06.31.25a.24.24,0,0,1-.13.23s.11,0,.11.17v.17a.1.1,0,0,0,.05.1v0H8.49a1.06,1.06,0,0,1,0-.24c0-.07,0-.16-.17-.16H8ZM8,23h.29c.09,0,.19,0,.19-.16s-.1-.16-.17-.16H8Z" transform="translate(-0.24 -7.49)"/><path class="cls-2" d="M9.35,22.84c0-.15-.13-.19-.24-.19s-.21,0-.21.16.06.1.11.12l.27.06a.24.24,0,0,1,.21.25c0,.22-.21.28-.37.28a.36.36,0,0,1-.28-.09.28.28,0,0,1-.09-.24h.12c0,.17.13.22.25.22s.25,0,.25-.15,0-.13-.2-.17l-.19,0a.23.23,0,0,1-.2-.22.28.28,0,0,1,.32-.29c.33,0,.36.19.36.3Z" transform="translate(-0.24 -7.49)"/><path class="cls-2" d="M9.79,23.5H9.67v-.94h.12Z" transform="translate(-0.24 -7.49)"/><path class="cls-2" d="M10.42,23.52a.49.49,0,0,1,0-1,.49.49,0,0,1,0,1Zm0-.87a.38.38,0,0,0,0,.76c.2,0,.32-.16.32-.38S10.62,22.65,10.42,22.65Z" transform="translate(-0.24 -7.49)"/><path class="cls-2" d="M11.64,22.56h.12v.94h-.14l-.47-.76h0v.76H11v-.94h.15l.47.76h0Z" transform="translate(-0.24 -7.49)"/><path class="cls-2" d="M12.66,23.5H12v-.94h.68v.11H12.1V23h.51v.11H12.1v.31h.56Z" transform="translate(-0.24 -7.49)"/><path class="cls-2" d="M13.39,22.84c0-.15-.12-.19-.23-.19s-.21,0-.21.16.05.1.11.12l.26.06a.25.25,0,0,1,.22.25c0,.22-.21.28-.37.28a.36.36,0,0,1-.28-.09.29.29,0,0,1-.1-.24h.12c0,.17.14.22.26.22s.24,0,.24-.15,0-.13-.2-.17l-.19,0a.23.23,0,0,1-.2-.22.29.29,0,0,1,.33-.29c.32,0,.35.19.36.3Z" transform="translate(-0.24 -7.49)"/><path class="cls-2" d="M14.05,22.56h.42a.24.24,0,0,1,.26.24.2.2,0,0,1-.13.19.22.22,0,0,1,.17.23.28.28,0,0,1-.31.28h-.41Zm.13.4h.23c.12,0,.19,0,.19-.15s0-.14-.19-.14h-.23Zm0,.43h.27c.13,0,.2-.07.2-.17s-.12-.16-.22-.16h-.25Z" transform="translate(-0.24 -7.49)"/><path class="cls-2" d="M15.05,23.38h.47v.12h-.6v-.94h.13Z" transform="translate(-0.24 -7.49)"/><path class="cls-2" d="M15.79,23.22l-.09.28h-.13l.35-.94h.14l.34.94h-.14l-.09-.28Zm.33-.11L16,22.7h0l-.15.41Z" transform="translate(-0.24 -7.49)"/><path class="cls-2" d="M17.13,22.56h.13v.94h-.15l-.47-.76h0v.76h-.13v-.94h.15l.47.76h0Z" transform="translate(-0.24 -7.49)"/><path class="cls-2" d="M17.46,22.56h.38c.24,0,.39.19.39.46s-.09.48-.4.48h-.37Zm.13.83h.24c.16,0,.27-.13.27-.37s-.11-.35-.28-.35h-.23Z" transform="translate(-0.24 -7.49)"/><path class="cls-2" d="M18.8,23.52a.49.49,0,0,1,0-1,.49.49,0,0,1,0,1Zm0-.87a.38.38,0,0,0,0,.76c.2,0,.32-.16.32-.38S19,22.65,18.8,22.65Z" transform="translate(-0.24 -7.49)"/><path class="cls-2" d="M20,22.56h.12v.94H20l-.47-.76h0v.76H19.4v-.94h.15l.47.76h0Z" transform="translate(-0.24 -7.49)"/><path class="cls-2" d="M20.83,23.38h.47v.12h-.6v-.94h.13Z" transform="translate(-0.24 -7.49)"/><path class="cls-2" d="M22.13,23.5h-.69v-.94h.68v.11h-.55V23h.51v.11h-.51v.31h.56Z" transform="translate(-0.24 -7.49)"/><path class="cls-2" d="M22.7,23.52a.49.49,0,0,1,0-1,.49.49,0,0,1,0,1Zm0-.87c-.2,0-.32.16-.32.38s.12.38.32.38a.38.38,0,0,0,0-.76Z" transform="translate(-0.24 -7.49)"/><path class="cls-2" d="M23.92,22.56h.13v.94H23.9l-.47-.76h0v.76H23.3v-.94h.15l.47.76h0Z" transform="translate(-0.24 -7.49)"/><path class="cls-2" d="M24.26,23.36h.13v.13a.18.18,0,0,1-.13.2v-.06s.07-.07.07-.13h-.07Z" transform="translate(-0.24 -7.49)"/><path class="cls-2" d="M25.53,22.84a.2.2,0,0,0-.23-.19c-.08,0-.22,0-.22.16s.06.1.12.12l.26.06a.24.24,0,0,1,.21.25c0,.22-.2.28-.36.28a.36.36,0,0,1-.28-.09.29.29,0,0,1-.1-.24h.12c0,.17.14.22.26.22s.24,0,.24-.15,0-.13-.2-.17l-.19,0a.23.23,0,0,1-.2-.22.29.29,0,0,1,.32-.29c.33,0,.36.19.37.3Z" transform="translate(-0.24 -7.49)"/><path class="cls-2" d="M26,23.5h-.14v-.14H26Z" transform="translate(-0.24 -7.49)"/><path class="cls-2" d="M26.32,23.22l-.1.28h-.13l.35-.94h.14l.34.94h-.14l-.09-.28Zm.32-.11-.13-.41h0l-.15.41Z" transform="translate(-0.24 -7.49)"/><path class="cls-2" d="M27.19,23.5h-.14v-.14h.14Z" transform="translate(-0.24 -7.49)"/><path class="cls-3" d="M4.17,18.46V17h.48s.07,0,.07-.06v-.71a.07.07,0,0,0-.07-.06H2.75a.06.06,0,0,0-.06.06v.71a.06.06,0,0,0,.06.06h.5v3.17h-.5a.06.06,0,0,0-.06,0v.72a.06.06,0,0,0,.06.06h1.9a.07.07,0,0,0,.07-.06v-.72s0,0-.07,0H4.17V18.46Z" transform="translate(-0.24 -7.49)"/><path class="cls-3" d="M9,16.23v4.71A.06.06,0,0,1,9,21h-.8a.06.06,0,0,1-.06,0L5.9,17.8V21H5V16.23A.06.06,0,0,1,5,16.17h.8s0,0,0,0l2.23,3.18V16.23a.07.07,0,0,1,.07-.06H9A.06.06,0,0,1,9,16.23Z" transform="translate(-0.24 -7.49)"/><path class="cls-3" d="M11.87,18.58a1,1,0,0,0,.67-1c0-1.41-1.63-1.38-1.63-1.38H9.33a.06.06,0,0,0-.06.06V19h0v2h1.64c.32,0,1.7-.06,1.7-1.41A1.06,1.06,0,0,0,11.87,18.58ZM10.18,17h.73s.71,0,.71.57-.71.53-.71.53h-.73Zm.73,3.08h-.73V19h.73s.78,0,.78.53S11.21,20.12,10.91,20.12Z" transform="translate(-0.24 -7.49)"/><path class="cls-3" d="M15.47,20.1H13.79V16.23a.06.06,0,0,0-.06-.06h-.79a.07.07,0,0,0-.07.06v4.71a.08.08,0,0,0,.07.06h2.53a.07.07,0,0,0,.07-.07v-.77S15.52,20.1,15.47,20.1Z" transform="translate(-0.24 -7.49)"/><path class="cls-3" d="M18.07,21H15.85a.08.08,0,0,1-.07-.07v-4.7a.07.07,0,0,1,.07-.06h2.22v.88H16.7v1.09h1.12a.06.06,0,0,1,.06.05V19a.06.06,0,0,1-.06.05H16.7V20.1h1.37Z" transform="translate(-0.24 -7.49)"/><path class="cls-3" d="M22.37,16.23v4.71a.07.07,0,0,1-.07.06h-.79a.08.08,0,0,1-.07,0L19.23,17.8V21h-.92V16.23a.06.06,0,0,1,.06-.06h.8l.06,0,2.22,3.18V16.23a.07.07,0,0,1,.07-.06h.78A.07.07,0,0,1,22.37,16.23Z" transform="translate(-0.24 -7.49)"/><path class="cls-3" d="M25.62,19.59A1.4,1.4,0,0,1,24.12,21h0v-.87h0a.57.57,0,0,0,.61-.54.62.62,0,0,0-.61-.58,1.7,1.7,0,0,1-.71-.17,1.27,1.27,0,0,1-.79-1.21,1.45,1.45,0,0,1,1.5-1.46,1.39,1.39,0,0,1,1.48,1.38s0,.05-.06.05h-.76a.06.06,0,0,1-.06-.05.53.53,0,0,0-.6-.51.56.56,0,0,0-.6.59.55.55,0,0,0,.6.53,1.85,1.85,0,0,1,.72.16A1.34,1.34,0,0,1,25.62,19.59Z" transform="translate(-0.24 -7.49)"/><path class="cls-3" d="M29.2,21h-.83a.08.08,0,0,1-.06,0l-.94-2.69L26.42,21a.08.08,0,0,1-.06,0h-.83c-.05,0-.08,0-.06-.08l1.83-4.71a.07.07,0,0,1,.12,0l1.83,4.71A.05.05,0,0,1,29.2,21Z" transform="translate(-0.24 -7.49)"/><path class="cls-4" d="M28.34,21.82l-1-2.71-.95,2.71Z" transform="translate(-0.24 -7.49)"/><rect class="cls-4" x="1.71" y="16.59" width="28.05" height="0.42"/><polygon class="cls-5" points="13.9 3.21 14.96 2.4 18.97 5.43 22.15 5.43 14.98 0 12.33 2.02 13.9 3.21"/><polygon class="cls-4" points="20.21 3.21 21.27 2.4 25.28 5.43 28.46 5.43 21.29 0 18.64 2.02 20.21 3.21"/><polygon class="cls-6" points="29.22 6.01 16.72 6.01 9.46 0.52 0 7.73 3.13 7.73 9.44 2.92 15.82 7.73 31.53 7.73 29.22 6.01"/><polygon class="cls-5" points="13.9 3.21 14.96 2.4 18.97 5.43 22.15 5.43 14.98 0 12.33 2.02 13.9 3.21"/><polygon class="cls-4" points="20.21 3.21 21.27 2.4 25.28 5.43 28.46 5.43 21.29 0 18.64 2.02 20.21 3.21"/></svg>